<svg width="22" height="17" viewBox="0 0 22 17" fill="white"
	xmlns="http://www.w3.org/2000/svg">
	<path d="M1.41603 0.72265C1.26285 0.492886 0.952414 0.430799 0.72265 0.583975C0.492886 0.737151 0.430799 1.04759 0.583975 1.27735L1.41603 0.72265ZM11 16L10.584 16.2774C10.6767 16.4164 10.8328 16.5 11 16.5C11.1672 16.5 11.3233 16.4164 11.416 16.2774L11 16ZM21.416 1.27735C21.5692 1.04759 21.5071 0.737151 21.2774 0.583975C21.0476 0.430799 20.7372 0.492886 20.584 0.72265L21.416 1.27735ZM19.3145 3.5282L19.7306 3.80555L19.7306 3.80555L19.3145 3.5282ZM0.583975 1.27735L10.584 16.2774L11.416 15.7226L1.41603 0.72265L0.583975 1.27735ZM11.416 16.2774L19.7306 3.80555L18.8985 3.25085L10.584 15.7226L11.416 16.2774ZM19.7306 3.80555L21.416 1.27735L20.584 0.72265L18.8985 3.25085L19.7306 3.80555Z" fill="white"/>
</svg>
