<svg viewBox="0 0 26 26" xmlns="http://www.w3.org/2000/svg" id="instagram">
<path d="M12.8044 6.16996C9.25356 6.16996 6.38946 9.0391 6.38946 12.5962C6.38946 16.1532 9.25356 19.0223 12.8044 19.0223C16.3552 19.0223 19.2193 16.1532 19.2193 12.5962C19.2193 9.0391 16.3552 6.16996 12.8044 6.16996ZM12.8044 16.774C10.5098 16.774 8.63384 14.9004 8.63384 12.5962C8.63384 10.2919 10.5042 8.41829 12.8044 8.41829C15.1046 8.41829 16.9749 10.2919 16.9749 12.5962C16.9749 14.9004 15.099 16.774 12.8044 16.774ZM20.978 5.9071C20.978 6.74043 20.308 7.40598 19.4817 7.40598C18.6498 7.40598 17.9855 6.73484 17.9855 5.9071C17.9855 5.07936 18.6554 4.40821 19.4817 4.40821C20.308 4.40821 20.978 5.07936 20.978 5.9071ZM25.2267 7.42835C25.1318 5.42052 24.674 3.64199 23.2056 2.17667C21.7429 0.711337 19.9674 0.252724 17.9631 0.152052C15.8974 0.0346024 9.70579 0.0346024 7.64006 0.152052C5.64133 0.247131 3.86592 0.705745 2.39757 2.17107C0.92923 3.6364 0.477002 5.41493 0.376507 7.42276C0.259263 9.49212 0.259263 15.6946 0.376507 17.7639C0.471419 19.7718 0.92923 21.5503 2.39757 23.0156C3.86592 24.481 5.63574 24.9396 7.64006 25.0402C9.70579 25.1577 15.8974 25.1577 17.9631 25.0402C19.9674 24.9452 21.7429 24.4866 23.2056 23.0156C24.6684 21.5503 25.1262 19.7718 25.2267 17.7639C25.3439 15.6946 25.3439 9.49771 25.2267 7.42835ZM22.558 19.9843C22.1225 21.0805 21.2795 21.925 20.1796 22.3669C18.5326 23.0212 14.6245 22.8702 12.8044 22.8702C10.9843 22.8702 7.07059 23.0156 5.42917 22.3669C4.33489 21.9306 3.49185 21.0861 3.05079 19.9843C2.39757 18.3344 2.54832 14.4194 2.54832 12.5962C2.54832 10.7729 2.40316 6.85229 3.05079 5.20799C3.48627 4.11179 4.32931 3.26727 5.42917 2.82544C7.07617 2.17107 10.9843 2.32208 12.8044 2.32208C14.6245 2.32208 18.5382 2.17667 20.1796 2.82544C21.2739 3.26168 22.1169 4.1062 22.558 5.20799C23.2112 6.85788 23.0605 10.7729 23.0605 12.5962C23.0605 14.4194 23.2112 18.34 22.558 19.9843Z"/>
</svg>
