<svg viewBox="0 0 29 26" xmlns="http://www.w3.org/2000/svg" id="telegram">
<path d="M28.0201 2.25268C27.6351 6.65256 25.9493 17.338 25.096 22.2654C24.7318 24.3531 24.0242 25.049 23.3374 25.1163C21.839 25.2622 20.7047 24.05 19.2478 23.0174C16.9793 21.4124 15.689 20.4134 13.4933 18.842C10.9438 17.0349 12.5984 16.036 14.0448 14.4085C14.4298 13.9819 21.0273 7.5056 21.1522 6.92194C21.173 6.84337 21.1834 6.57399 21.0273 6.42807C20.8712 6.28216 20.6527 6.33828 20.4966 6.37195C20.2676 6.42433 16.6394 9.00964 9.61185 14.1279C8.58512 14.8911 7.65204 15.2615 6.81262 15.2391C5.88649 15.2166 4.11746 14.6778 2.79589 14.2177C1.18295 13.6564 -0.107396 13.3534 0.00707014 12.3881C0.062569 11.8868 0.704276 11.3742 1.93219 10.8504C9.45229 7.31853 14.468 4.98764 16.9793 3.85774C24.1491 0.647622 25.6372 0.0864132 26.6049 0.0639648C26.8234 0.0639648 27.2917 0.120087 27.6039 0.389468C27.8076 0.582678 27.9375 0.850734 27.9681 1.14149C28.0244 1.50857 28.0418 1.88135 28.0201 2.25268Z"/>
</svg>
