<svg viewBox="0 0 29 26" xmlns="http://www.w3.org/2000/svg" id="untappd">
<path d="M17.8732 2.58597C14.2269 10.6605 14.0076 10.2772 13.8568 11.3212L13.6192 12.9755C13.5324 13.5807 13.3177 14.1607 12.9932 14.66L6.18956 25.1403C5.8423 25.6749 5.25743 25.9573 4.66342 25.8766C2.822 25.6245 1.10851 24.2526 0.308887 22.4219C0.0484372 21.8267 0.103269 21.1207 0.450535 20.5861L7.25421 10.1007C7.57863 9.60141 8.00357 9.19289 8.49705 8.90542L9.83585 8.12368C10.6812 7.62942 10.2791 7.52351 16.0318 1.11832C16.0775 0.876236 16.0775 0.750149 16.1963 0.714845C16.3334 0.679541 16.4979 0.664411 16.4842 0.482846L16.4659 0.250847C16.4568 0.155022 16.5253 0.0692831 16.6121 0.0692831C16.8177 0.0642396 17.2153 0.129805 17.7818 0.573629C18.3439 1.0225 18.5312 1.42093 18.5906 1.6378C18.618 1.72858 18.5632 1.82441 18.481 1.84962L18.2753 1.9051C18.12 1.95049 18.1611 2.12701 18.1702 2.27832C18.1748 2.41953 18.0651 2.45988 17.8732 2.58597ZM10.0506 1.9051C10.206 1.95049 10.1648 2.12701 10.1557 2.27832C10.1466 2.41449 10.2517 2.45484 10.4481 2.58092C10.8091 3.38283 11.1472 4.11918 11.4625 4.80004C11.4945 4.86561 11.5676 4.8757 11.6133 4.82526C12.1251 4.22005 12.7374 3.50388 13.4639 2.67675C13.5233 2.60614 13.5278 2.50023 13.4684 2.42962C13.1029 2.01606 12.7145 1.57728 12.2987 1.11328C12.253 0.876236 12.253 0.745106 12.1342 0.709802C11.9971 0.669454 11.8326 0.659367 11.8463 0.477803C11.8601 0.311369 11.9103 0.0692831 11.7184 0.0642396C11.5128 0.0591962 11.1153 0.119718 10.5487 0.568585C9.98664 1.01745 9.7993 1.41589 9.7399 1.63275C9.67593 1.84458 9.9044 1.86475 10.0506 1.9051ZM27.8663 20.581L21.0672 10.0957C20.464 9.16263 19.8517 8.9155 18.4901 8.12368C17.9783 7.82612 17.8412 7.57394 17.0965 6.66612C17.0508 6.61064 16.9639 6.62073 16.932 6.69134C14.8164 11.1699 14.7798 10.8673 14.693 11.4725C14.6153 12.0122 14.6336 12.4812 14.7067 12.9755C14.7935 13.5807 15.0083 14.1607 15.3327 14.66L22.1364 25.1453C22.4836 25.6799 23.0594 25.9624 23.6488 25.8867C25.4902 25.6396 27.2129 24.2728 28.0216 22.4269C28.2684 21.8267 28.2181 21.1207 27.8663 20.581Z"/>
</svg>
