<svg viewBox="0 0 26 26" xmlns="http://www.w3.org/2000/svg" id="vk">
<path d="M1.97839 1.88048C0.21875 3.69699 0.21875 6.62072 0.21875 12.4624V13.5004C0.21875 19.3421 0.21875 22.2658 1.97839 24.0823C3.73804 25.8988 6.57022 25.8988 12.229 25.8988H13.2345C18.8933 25.8988 21.7255 25.8988 23.4851 24.0823C25.2448 22.2658 25.2448 19.3421 25.2448 13.5004V12.4624C25.2448 6.62072 25.2448 3.69699 23.4851 1.88048C21.7255 0.0639648 18.8933 0.0639648 13.2345 0.0639648H12.229C6.57022 0.0639648 3.73804 0.0639648 1.97839 1.88048ZM4.44189 7.924H7.29643C7.39139 12.8545 9.49738 14.9421 11.1676 15.3688V7.924H13.8602V12.1741C15.5081 11.9895 17.2342 10.0519 17.8208 7.924H20.5133C20.2899 9.02544 19.8541 10.075 19.2229 10.9977C18.5917 11.9203 17.7873 12.6988 16.8488 13.2813C17.8934 13.8176 18.8151 14.573 19.5525 15.5072C20.2954 16.4357 20.8317 17.514 21.139 18.6732H18.1727C17.9046 17.6697 17.3459 16.7644 16.5806 16.0839C15.8097 15.3977 14.8657 14.9652 13.8602 14.8325V18.6732H13.5362C7.8327 18.6732 4.57596 14.6365 4.44189 7.924Z"/>
</svg>
