<svg viewBox="0 0 29 23" xmlns="http://www.w3.org/2000/svg" id="youtube">
<path d="M27.5171 3.62218C27.1938 2.21902 26.2444 1.11781 25.0385 0.744822C22.8524 0.0639648 14.0875 0.0639648 14.0875 0.0639648C14.0875 0.0639648 5.32263 0.0639648 3.13654 0.744822C1.9306 1.11781 0.981242 2.21902 0.657947 3.62218C0.072937 6.16207 0.072937 11.455 0.072937 11.455C0.072937 11.455 0.072937 16.7479 0.657947 19.2878C0.981242 20.691 1.9306 21.7448 3.13654 22.1178C5.32263 22.7987 14.0875 22.7987 14.0875 22.7987C14.0875 22.7987 22.8524 22.7987 25.0385 22.1178C26.2444 21.7448 27.1938 20.685 27.5171 19.2878C28.1021 16.7479 28.1021 11.455 28.1021 11.455C28.1021 11.455 28.1021 6.16207 27.5171 3.62218ZM11.2241 16.2624V6.64755L18.5469 11.455L11.2241 16.2624Z"/>
</svg>
