<svg version="1.1" id="Слой_1" xmlns="http://www.w3.org/2000/svg" x="0" y="0" viewBox="0 0 150 150" xml:space="preserve" fill="#fff"><style>.st0{fill:#fff}</style><path class="st0" d="M46 131.6c-22.8 0-41.4-25-41.4-55.8 0-4.6.4-9.2 1.3-13.7l.9.2c-.8 4.4-1.2 9-1.2 13.5 0 30.3 18.1 54.9 40.4 54.9S86.4 106 86.4 75.8c0-4.6-.4-9.1-1.2-13.5l.9-.2c.8 4.5 1.3 9.1 1.3 13.7 0 30.8-18.6 55.8-41.4 55.8z"/><path class="st0" d="M104 131.6c-22.8 0-41.4-25-41.4-55.8 0-4.6.4-9.2 1.3-13.7l.9.2c-.8 4.4-1.2 9-1.2 13.5 0 30.3 18.1 54.9 40.4 54.9s40.4-24.6 40.4-54.9c0-4.6-.4-9.1-1.2-13.5l.9-.2c.8 4.5 1.3 9.1 1.3 13.7-.1 30.8-18.6 55.8-41.4 55.8z"/><path class="st0" d="M75 131.6c-22.8 0-41.4-25-41.4-55.8 0-4.6.4-9.1 1.2-13.6.1-.5.3-1.6.7-1.8l.5.8c.1 0 .1-.1.1-.1-.1.2-.3 1-.4 1.3-.8 4.4-1.2 8.9-1.2 13.4 0 30.3 18.1 54.9 40.4 54.9s40.4-24.6 40.4-54.9c0-4.6-.4-9.1-1.2-13.5l.9-.2c.8 4.5 1.3 9.1 1.3 13.7.1 30.8-18.5 55.8-41.3 55.8z"/><path class="st0" d="M26.5 49.6H33c1.1 0 1.9.2 2.5.5.6.4 1 .8 1.2 1.2.2.5.3 1 .3 1.5 0 1.3-.7 2.2-2.1 2.7.7.1 1.3.4 1.9.9.6.5.9 1.3.9 2.4 0 1-.3 1.8-.8 2.3-.5.5-1.1.9-1.8 1.1s-1.5.3-2.3.3h-6.2V49.6zm3.1 2.5v2.6h2.8c.5 0 .9-.1 1.1-.4.2-.3.4-.6.4-.9 0-.3-.1-.6-.3-.8-.2-.3-.7-.4-1.3-.4h-2.7zm0 4.9v3h3.2c.4 0 .7-.1 1.1-.3.4-.2.6-.6.6-1.1 0-.4-.1-.7-.4-1s-.6-.4-1.1-.5h-3.4zm31.9 5.9c-1.3 0-2.3-.2-3.2-.7-.9-.4-1.5-1-2-1.7s-.8-1.4-1-2.2-.3-1.5-.3-2.3c0-.7.1-1.5.3-2.3s.5-1.5 1-2.2c.5-.7 1.2-1.3 2-1.7.9-.4 1.9-.7 3.2-.7 1.1 0 2.1.2 3 .5s1.5.9 2 1.5.9 1.4 1.2 2.2.3 1.8.3 2.7c0 .9-.1 1.8-.4 2.6-.2.8-.6 1.5-1.2 2.2-.5.6-1.2 1.1-2 1.5-.8.4-1.8.6-2.9.6zm0-2.5c.8 0 1.6-.3 2.2-.9.7-.6 1-1.7 1-3.5 0-1.1-.2-2-.5-2.6-.3-.6-.7-1.1-1.2-1.3-.5-.2-1-.4-1.6-.4-1 0-1.8.3-2.4 1s-.9 1.8-.9 3.3c0 1.1.2 2 .5 2.6.3.6.7 1.1 1.2 1.3.6.3 1.1.5 1.7.5zm31.1-7.7l-2.2 9.6H87l-3.4-12.9h3.2l2.1 9.4 2.3-9.4H94l2.3 9.4 2.1-9.4h3.2l-3.4 12.9h-3.3l-2.3-9.6zm30.8 7.1v2.5h-9.1v-13h3.1v10.4h6zm-75.5 16h3c-.1.7-.3 1.5-.6 2.2-.3.7-.9 1.4-1.8 1.9-.8.5-2 .8-3.5.8-.8 0-1.6-.1-2.3-.3-.7-.2-1.4-.5-2-1-.6-.5-1.1-1.2-1.5-2-.4-.9-.5-1.9-.5-3.2 0-1.2.2-2.4.6-3.5.4-1.1 1-1.9 2-2.6.9-.7 2.2-1 3.7-1 1.3 0 2.4.2 3.3.7.9.5 1.5 1 1.9 1.8.4.7.6 1.5.7 2.3h-3c-.2-1.5-1.1-2.3-2.7-2.3-1.2 0-2 .5-2.5 1.4-.4.9-.6 1.9-.6 3.1 0 .8.1 1.5.3 2.1.2.6.6 1.1 1.1 1.5.5.4 1.1.6 1.8.6.9 0 1.6-.3 2-.8.3-.5.5-1.1.6-1.7zm21.7-8.5h3.1v7.5c0 .7.1 1.3.2 1.8s.4.8.8 1.1c.4.3.9.4 1.5.4s1.2-.1 1.5-.4c.4-.3.6-.6.8-1.1.2-.5.2-1.1.2-1.8v-7.5h3.1v8c0 .5 0 1-.1 1.5s-.3 1.1-.7 1.7-.9 1.1-1.7 1.5c-.8.4-1.8.6-3.1.6-3.7 0-5.6-1.8-5.6-5.3v-8zm33.9 2.7h-3.9v-2.5h10.9V70h-3.9v10.4h-3.1V70z"/><path class="st0" d="M.7 61.3h7.7v.9H.7zm140.9 0h7.7v.9h-7.7zm-15.1 0h7.7v.9h-7.7zm-15.7 0h7.7v.9h-7.7zm-15.7 0h7.7v.9h-7.7zm-31.5 0h7.7v.9h-7.7zm-31.4 0h7.7v.9h-7.7zm-15.7 0h7.7v.9h-7.7zm31.4 0h7.7v.9h-7.7zm31.4 0H87v.9h-7.7z"/><path class="st0" d="M.9 62.3H0c0-24.2 21.3-43.9 47.4-43.9 21 0 39.2 12.5 45.3 31l-.9.3c-6-18.2-23.9-30.4-44.4-30.4C21.8 19.3.9 38.6.9 62.3z"/><path class="st0" d="M150 62.3h-.9c0-23.7-20.8-42.9-46.5-42.9-21.3 0-39.8 13.3-45 32.4l-.9-.2c5.3-19.5 24.2-33 46-33 26-.2 47.3 19.5 47.3 43.7z"/><path class="st0" d="M121.5 60.3c-.8-4-1.7-7.6-2.9-11.3-6.2-17.8-24-29.7-44.2-29.7-20.9 0-39.3 13-44.8 31.6l-.9-.3c5.6-19 24.4-32.3 45.7-32.3 20.6 0 38.8 12.2 45.1 30.3 1.2 3.7 2.1 7.4 2.9 11.4l-.9.3z"/></svg>