<svg xmlns="http://www.w3.org/2000/svg"><symbol id="instagram" viewBox="0 0 26 26"><path d="M12.804 6.17a6.41 6.41 0 00-6.415 6.426 6.41 6.41 0 006.415 6.426 6.41 6.41 0 006.415-6.426 6.41 6.41 0 00-6.415-6.426zm0 10.604a4.178 4.178 0 010-8.356 4.178 4.178 0 010 8.356zm8.174-10.867c0 .833-.67 1.499-1.496 1.499a1.494 1.494 0 01-1.497-1.499 1.498 1.498 0 112.993 0zm4.249 1.521c-.095-2.007-.553-3.786-2.021-5.251C21.743.71 19.967.253 17.963.152 15.897.035 9.706.035 7.64.152c-1.999.095-3.774.554-5.242 2.02C.929 3.635.477 5.414.377 7.421c-.118 2.07-.118 8.273 0 10.342.094 2.008.552 3.786 2.02 5.252 1.47 1.465 3.24 1.925 5.243 2.025 2.066.118 8.257.118 10.323 0 2.004-.095 3.78-.553 5.243-2.024 1.462-1.466 1.92-3.244 2.02-5.252.118-2.07.118-8.266 0-10.336zm-2.669 12.556a4.226 4.226 0 01-2.378 2.383c-1.647.654-5.556.503-7.376.503-1.82 0-5.733.146-7.375-.503a4.226 4.226 0 01-2.378-2.383c-.653-1.65-.503-5.565-.503-7.388 0-1.823-.145-5.744.503-7.388a4.226 4.226 0 012.378-2.383c1.647-.654 5.555-.503 7.375-.503 1.82 0 5.734-.145 7.376.503a4.226 4.226 0 012.378 2.383c.653 1.65.503 5.565.503 7.388 0 1.823.15 5.744-.503 7.388z"/></symbol><symbol id="telegram" viewBox="0 0 26 26"><path d="M28.02 2.253c-.385 4.4-2.07 15.085-2.924 20.012-.364 2.088-1.072 2.784-1.759 2.851-1.498.146-2.632-1.066-4.09-2.099-2.268-1.605-3.558-2.604-5.754-4.175-2.55-1.807-.895-2.806.552-4.433.385-.427 6.982-6.903 7.107-7.487.021-.079.031-.348-.125-.494-.156-.146-.374-.09-.53-.051-.23.047-3.858 2.633-10.885 7.75-1.027.764-1.96 1.134-2.8 1.112-.926-.022-2.695-.561-4.016-1.021-1.613-.562-2.903-.865-2.789-1.83.056-.501.697-1.014 1.925-1.538 7.52-3.53 12.536-5.862 15.048-6.992C24.15.648 25.637.086 26.605.064c.218 0 .687.056.999.325.204.194.334.462.364.752.056.368.074.74.052 1.112z"/></symbol><symbol id="untappd" viewBox="0 0 29 26"><path d="M17.873 2.586c-3.646 8.075-3.865 7.691-4.016 8.735l-.238 1.655a4.194 4.194 0 01-.626 1.684L6.19 25.14c-.348.535-.933.817-1.527.737-1.841-.252-3.554-1.624-4.354-3.455a1.965 1.965 0 01.142-1.836l6.803-10.485c.325-.5.75-.908 1.243-1.196l1.339-.781c.845-.495.443-.6 6.196-7.006.046-.242.046-.368.164-.403.137-.035.302-.05.288-.232L16.466.25c-.01-.096.06-.182.146-.182.206-.005.603.06 1.17.505.562.449.75.847.809 1.064a.173.173 0 01-.11.212l-.206.055c-.155.045-.114.222-.105.373.005.142-.105.182-.297.308zm-7.822-.68c.155.044.114.221.105.372-.01.136.096.177.292.303.361.802.7 1.538 1.014 2.219.033.066.106.076.151.025.512-.605 1.124-1.321 1.85-2.148a.194.194 0 00.005-.247c-.365-.414-.754-.853-1.17-1.317-.045-.237-.045-.368-.164-.403-.137-.04-.301-.05-.288-.232.014-.167.064-.409-.128-.414-.205-.005-.603.056-1.17.505-.561.448-.749.847-.808 1.064-.064.212.164.232.31.272zM27.866 20.58l-6.799-10.485c-.603-.933-1.215-1.18-2.577-1.972-.512-.298-.649-.55-1.393-1.458a.097.097 0 00-.165.025c-2.116 4.479-2.152 4.176-2.239 4.782a4.96 4.96 0 00.014 1.502 4.17 4.17 0 00.626 1.685l6.803 10.485c.348.535.923.817 1.513.742 1.841-.247 3.564-1.614 4.373-3.46.246-.6.196-1.306-.156-1.846z"/></symbol><symbol id="vk" viewBox="0 0 26 26"><path d="M1.978 1.88C.218 3.697.218 6.62.218 12.462V13.5c0 5.842 0 8.766 1.76 10.582C3.738 25.9 6.57 25.9 12.23 25.9h1.006c5.658 0 8.49 0 10.25-1.817 1.76-1.816 1.76-4.74 1.76-10.582v-1.038c0-5.841 0-8.765-1.76-10.582C21.725.064 18.893.064 13.235.064h-1.006c-5.659 0-8.491 0-10.25 1.816zm2.464 6.044h2.854c.095 4.93 2.201 7.018 3.872 7.445V7.924h2.692v4.25c1.648-.184 3.374-2.122 3.96-4.25h2.693a8.404 8.404 0 01-1.29 3.074 7.98 7.98 0 01-2.374 2.283 8.23 8.23 0 012.703 2.226 8.575 8.575 0 011.587 3.166h-2.966a5.307 5.307 0 00-1.592-2.59 5.087 5.087 0 00-2.72-1.25v3.84h-.325c-5.703 0-8.96-4.036-9.094-10.749z"/></symbol><symbol id="youtube" viewBox="0 0 29 26"><path d="M27.517 3.622c-.323-1.403-1.273-2.504-2.479-2.877-2.186-.681-10.95-.681-10.95-.681s-8.765 0-10.951.68C1.93 1.119.98 2.22.657 3.623c-.584 2.54-.584 7.833-.584 7.833s0 5.293.585 7.833c.323 1.403 1.273 2.457 2.479 2.83 2.186.68 10.95.68 10.95.68s8.765 0 10.951-.68c1.206-.373 2.156-1.433 2.48-2.83.584-2.54.584-7.833.584-7.833s0-5.293-.585-7.833zm-16.293 12.64V6.648l7.323 4.807-7.323 4.807z"/></symbol><symbol id="arrow" viewBox="0 0 22 17"><path d="M1.416.723a.5.5 0 00-.832.554l.832-.554zM11 16l-.416.277a.5.5 0 00.832 0L11 16zM21.416 1.277a.5.5 0 10-.832-.554l.832.554zm-2.102 2.251l.417.278-.417-.278zM.584 1.278l10 15 .832-.555-10-15-.832.554zm10.832 15l8.315-12.472-.833-.555-8.314 12.472.832.554zm8.315-12.472l1.685-2.529-.832-.554-1.686 2.528.833.555z" fill="#fff"/></symbol><symbol id="clock" viewBox="0 0 20 20"><path d="M464 256a208 208 0 11-416 0 208 208 0 11416 0zM0 256a256 256 0 10512 0 256 256 0 10-512 0zm232-136v136c0 8 4 15.5 10.7 20l96 64c11 7.4 25.9 4.4 33.3-6.7s4.4-25.9-6.7-33.3L280 243.2V120c0-13.3-10.7-24-24-24s-24 10.7-24 24z"/></symbol><symbol id="user" viewBox="0 0 20 20"><path d="M438.6 105.4c12.5 12.5 12.5 32.8 0 45.3l-256 256c-12.5 12.5-32.8 12.5-45.3 0l-128-128c-12.5-12.5-12.5-32.8 0-45.3s32.8-12.5 45.3 0L160 338.7l233.4-233.3c12.5-12.5 32.8-12.5 45.3 0z"/></symbol><symbol id="location" viewBox="0 0 20 20"><path d="M215.7 499.2C267 435 384 279.4 384 192 384 86 298 0 192 0S0 86 0 192c0 87.4 117 243 168.3 307.2 12.3 15.3 35.1 15.3 47.4 0zM192 128a64 64 0 110 128 64 64 0 110-128z"/></symbol><symbol id="check" viewBox="0 0 20 20"><path d="M96 128a128 128 0 11256 0 128 128 0 11-256 0zM0 482.3C0 383.8 79.8 304 178.3 304h91.4c98.5 0 178.3 79.8 178.3 178.3 0 16.4-13.3 29.7-29.7 29.7H29.7C13.3 512 0 498.7 0 482.3zM504 312v-64h-64c-13.3 0-24-10.7-24-24s10.7-24 24-24h64v-64c0-13.3 10.7-24 24-24s24 10.7 24 24v64h64c13.3 0 24 10.7 24 24s-10.7 24-24 24h-64v64c0 13.3-10.7 24-24 24s-24-10.7-24-24z"/></symbol></svg>