<svg version="1.1" id="Слой_1" xmlns="http://www.w3.org/2000/svg" xmlns:xlink="http://www.w3.org/1999/xlink" x="0px" y="0px"
	 viewBox="0 0 150 150" style="enable-background:new 0 0 150 150;" xml:space="preserve" fill="#1b1b1b">
<style type="text/css">
	.st0{fill:#1b1b1b;}
</style>
<g>
	<g>
		<path class="st0" d="M46,131.6c-22.8,0-41.4-25-41.4-55.8c0-4.6,0.4-9.2,1.3-13.7l0.9,0.2c-0.8,4.4-1.2,9-1.2,13.5
			c0,30.3,18.1,54.9,40.4,54.9S86.4,106,86.4,75.8c0-4.6-0.4-9.1-1.2-13.5l0.9-0.2c0.8,4.5,1.3,9.1,1.3,13.7
			C87.4,106.6,68.8,131.6,46,131.6z"/>
		<path class="st0" d="M104,131.6c-22.8,0-41.4-25-41.4-55.8c0-4.6,0.4-9.2,1.3-13.7l0.9,0.2c-0.8,4.4-1.2,9-1.2,13.5
			c0,30.3,18.1,54.9,40.4,54.9s40.4-24.6,40.4-54.9c0-4.6-0.4-9.1-1.2-13.5l0.9-0.2c0.8,4.5,1.3,9.1,1.3,13.7
			C145.3,106.6,126.8,131.6,104,131.6z"/>
		<path class="st0" d="M75,131.6c-22.8,0-41.4-25-41.4-55.8c0-4.6,0.4-9.1,1.2-13.6c0.1-0.5,0.3-1.6,0.7-1.8l0.5,0.8
			c0.1,0,0.1-0.1,0.1-0.1c-0.1,0.2-0.3,1-0.4,1.3c-0.8,4.4-1.2,8.9-1.2,13.4c0,30.3,18.1,54.9,40.4,54.9s40.4-24.6,40.4-54.9
			c0-4.6-0.4-9.1-1.2-13.5l0.9-0.2c0.8,4.5,1.3,9.1,1.3,13.7C116.4,106.6,97.8,131.6,75,131.6z"/>
	</g>
	<g>
		<path class="st0" d="M26.5,49.6H33c1.1,0,1.9,0.2,2.5,0.5c0.6,0.4,1,0.8,1.2,1.2c0.2,0.5,0.3,1,0.3,1.5c0,1.3-0.7,2.2-2.1,2.7v0
			c0.7,0.1,1.3,0.4,1.9,0.9c0.6,0.5,0.9,1.3,0.9,2.4c0,1-0.3,1.8-0.8,2.3c-0.5,0.5-1.1,0.9-1.8,1.1s-1.5,0.3-2.3,0.3h-6.2V49.6z
			 M29.6,52.1v2.6h2.8c0.5,0,0.9-0.1,1.1-0.4c0.2-0.3,0.4-0.6,0.4-0.9c0-0.3-0.1-0.6-0.3-0.8c-0.2-0.3-0.7-0.4-1.3-0.4H29.6z
			 M29.6,57V60h3.2c0.4,0,0.7-0.1,1.1-0.3c0.4-0.2,0.6-0.6,0.6-1.1c0-0.4-0.1-0.7-0.4-1s-0.6-0.4-1.1-0.5c-0.1,0-0.3,0-0.3,0
			s-0.2,0-0.2,0H29.6z"/>
		<path class="st0" d="M61.5,62.9c-1.3,0-2.3-0.2-3.2-0.7c-0.9-0.4-1.5-1-2-1.7c-0.5-0.7-0.8-1.4-1-2.2s-0.3-1.5-0.3-2.3
			c0-0.7,0.1-1.5,0.3-2.3s0.5-1.5,1-2.2c0.5-0.7,1.2-1.3,2-1.7c0.9-0.4,1.9-0.7,3.2-0.7c1.1,0,2.1,0.2,3,0.5s1.5,0.9,2,1.5
			c0.5,0.6,0.9,1.4,1.2,2.2S68,55.1,68,56c0,0.9-0.1,1.8-0.4,2.6c-0.2,0.8-0.6,1.5-1.2,2.2c-0.5,0.6-1.2,1.1-2,1.5
			C63.6,62.7,62.6,62.9,61.5,62.9z M61.5,60.4c0.8,0,1.6-0.3,2.2-0.9c0.7-0.6,1-1.7,1-3.5c0-1.1-0.2-2-0.5-2.6
			c-0.3-0.6-0.7-1.1-1.2-1.3c-0.5-0.2-1-0.4-1.6-0.4c-1,0-1.8,0.3-2.4,1s-0.9,1.8-0.9,3.3c0,1.1,0.2,2,0.5,2.6
			c0.3,0.6,0.7,1.1,1.2,1.3C60.4,60.2,60.9,60.4,61.5,60.4z"/>
		<path class="st0" d="M92.6,52.7l-2.2,9.6H87l-3.4-12.9h3.2l2.1,9.4l2.3-9.4H94l2.3,9.4l2.1-9.4h3.2l-3.4,12.9h-3.3L92.6,52.7z"/>
		<path class="st0" d="M123.4,59.8v2.5h-9.1V49.3h3.1v10.4H123.4z"/>
		<path class="st0" d="M47.9,75.8h3c-0.1,0.7-0.3,1.5-0.6,2.2c-0.3,0.7-0.9,1.4-1.8,1.9c-0.8,0.5-2,0.8-3.5,0.8
			c-0.8,0-1.6-0.1-2.3-0.3c-0.7-0.2-1.4-0.5-2-1c-0.6-0.5-1.1-1.2-1.5-2c-0.4-0.9-0.5-1.9-0.5-3.2c0-1.2,0.2-2.4,0.6-3.5
			c0.4-1.1,1-1.9,2-2.6c0.9-0.7,2.2-1,3.7-1c1.3,0,2.4,0.2,3.3,0.7c0.9,0.5,1.5,1,1.9,1.8c0.4,0.7,0.6,1.5,0.7,2.3h-3
			c-0.2-1.5-1.1-2.3-2.7-2.3c-1.2,0-2,0.5-2.5,1.4c-0.4,0.9-0.6,1.9-0.6,3.1c0,0.8,0.1,1.5,0.3,2.1c0.2,0.6,0.6,1.1,1.1,1.5
			c0.5,0.4,1.1,0.6,1.8,0.6c0.9,0,1.6-0.3,2-0.8C47.6,77,47.8,76.4,47.9,75.8z"/>
		<path class="st0" d="M69.6,67.3h3.1v7.5c0,0.7,0.1,1.3,0.2,1.8c0.1,0.5,0.4,0.8,0.8,1.1c0.4,0.3,0.9,0.4,1.5,0.4
			c0.6,0,1.2-0.1,1.5-0.4c0.4-0.3,0.6-0.6,0.8-1.1c0.2-0.5,0.2-1.1,0.2-1.8v-7.5h3.1v8c0,0.5,0,1-0.1,1.5c-0.1,0.5-0.3,1.1-0.7,1.7
			s-0.9,1.1-1.7,1.5c-0.8,0.4-1.8,0.6-3.1,0.6c-3.7,0-5.6-1.8-5.6-5.3V67.3z"/>
		<path class="st0" d="M103.5,70h-3.9v-2.5h10.9V70h-3.9v10.4h-3.1V70z"/>
	</g>
	<g>
		<rect x="0.7" y="61.3" class="st0" width="7.7" height="0.9"/>
		<rect x="141.6" y="61.3" class="st0" width="7.7" height="0.9"/>
		<rect x="126.5" y="61.3" class="st0" width="7.7" height="0.9"/>
		<rect x="110.8" y="61.3" class="st0" width="7.7" height="0.9"/>
		<rect x="95.1" y="61.3" class="st0" width="7.7" height="0.9"/>
		<rect x="63.6" y="61.3" class="st0" width="7.7" height="0.9"/>
		<rect x="32.2" y="61.3" class="st0" width="7.7" height="0.9"/>
		<rect x="16.5" y="61.3" class="st0" width="7.7" height="0.9"/>
		<rect x="47.9" y="61.3" class="st0" width="7.7" height="0.9"/>
		<rect x="79.3" y="61.3" class="st0" width="7.7" height="0.9"/>
	</g>
	<g>
		<path class="st0" d="M0.9,62.3H0c0-24.2,21.3-43.9,47.4-43.9c21,0,39.2,12.5,45.3,31l-0.9,0.3c-6-18.2-23.9-30.4-44.4-30.4
			C21.8,19.3,0.9,38.6,0.9,62.3z"/>
		<path class="st0" d="M150,62.3h-0.9c0-23.7-20.8-42.9-46.5-42.9c-21.3,0-39.8,13.3-45,32.4l-0.9-0.2c5.3-19.5,24.2-33,46-33
			C128.7,18.4,150,38.1,150,62.3z"/>
		<path class="st0" d="M121.5,60.3c-0.8-4-1.7-7.6-2.9-11.3c-6.2-17.8-24-29.7-44.2-29.7c-20.9,0-39.3,13-44.8,31.6l-0.9-0.3
			c5.6-19,24.4-32.3,45.7-32.3c20.6,0,38.8,12.2,45.1,30.3c1.2,3.7,2.1,7.4,2.9,11.4L121.5,60.3z"/>
	</g>
</g>
</svg>
