<svg viewBox="0 0 30 30" xmlns="http://www.w3.org/2000/svg"><path d="M14.516 8.106A6.41 6.41 0 008.1 14.532a6.41 6.41 0 006.415 6.426 6.41 6.41 0 006.415-6.426 6.41 6.41 0 00-6.415-6.426zm0 10.604a4.178 4.178 0 010-8.356 4.178 4.178 0 010 8.356zm8.173-10.867c0 .833-.67 1.499-1.496 1.499a1.494 1.494 0 01-1.496-1.499c0-.828.67-1.499 1.496-1.499s1.496.671 1.496 1.5zm4.25 1.521c-.096-2.007-.554-3.786-2.022-5.251-1.463-1.466-3.238-1.924-5.242-2.025-2.066-.117-8.258-.117-10.324 0-1.998.095-3.774.554-5.242 2.02-1.468 1.464-1.92 3.243-2.021 5.25-.117 2.07-.117 8.273 0 10.342.095 2.008.553 3.786 2.021 5.252 1.468 1.465 3.238 1.924 5.242 2.024 2.066.118 8.258.118 10.324 0 2.004-.095 3.78-.553 5.242-2.024 1.463-1.466 1.92-3.244 2.021-5.252.117-2.07.117-8.266 0-10.336zm-2.67 12.556a4.226 4.226 0 01-2.378 2.383c-1.647.654-5.555.503-7.375.503-1.82 0-5.734.146-7.375-.503a4.226 4.226 0 01-2.379-2.383c-.653-1.65-.502-5.565-.502-7.388 0-1.823-.145-5.744.502-7.388a4.226 4.226 0 012.379-2.383c1.647-.654 5.555-.503 7.375-.503 1.82 0 5.734-.145 7.375.503a4.226 4.226 0 012.378 2.383c.654 1.65.508 5.565.508 7.388 0 1.823.146 5.744-.508 7.388z"/></svg>