<svg viewBox="0 0 30 30" xmlns="http://www.w3.org/2000/svg"><path d="M28.02 3.253c-.385 4.4-2.07 15.085-2.924 20.012-.364 2.088-1.072 2.784-1.759 2.851-1.498.146-2.632-1.066-4.09-2.099-2.268-1.605-3.558-2.604-5.754-4.175-2.55-1.807-.895-2.806.552-4.433.385-.427 6.982-6.903 7.107-7.487.021-.079.031-.348-.125-.494-.156-.146-.374-.09-.53-.051-.23.047-3.858 2.633-10.885 7.75-1.027.764-1.96 1.135-2.8 1.112-.926-.022-2.695-.561-4.016-1.021-1.613-.562-2.903-.865-2.789-1.83.056-.501.697-1.014 1.925-1.538 7.52-3.53 12.536-5.862 15.048-6.992 7.17-3.21 8.658-3.772 9.626-3.794.218 0 .687.056.999.325.204.194.334.462.364.752.056.368.074.74.052 1.112z"/></svg>