<svg viewBox="0 0 30 30" xmlns="http://www.w3.org/2000/svg"><path d="M18.873 2.586c-3.646 8.075-3.865 7.691-4.016 8.735l-.238 1.655a4.194 4.194 0 01-.626 1.684L7.19 25.14c-.348.535-.933.817-1.527.737-1.841-.252-3.554-1.624-4.354-3.455a1.965 1.965 0 01.142-1.836l6.803-10.485c.325-.5.75-.908 1.243-1.196l1.339-.781c.845-.495.443-.6 6.196-7.006.046-.242.046-.368.164-.403.137-.035.302-.05.288-.232L17.466.25c-.01-.096.06-.182.146-.182.206-.005.603.06 1.17.505.562.449.75.847.809 1.064a.173.173 0 01-.11.212l-.206.055c-.155.045-.114.222-.105.373.005.142-.105.182-.297.308zm-7.822-.68c.155.044.114.221.105.372-.01.136.096.177.292.303.361.802.7 1.538 1.014 2.219.033.066.106.076.151.025.512-.605 1.124-1.321 1.85-2.148a.194.194 0 00.005-.247c-.365-.414-.754-.853-1.17-1.317-.045-.237-.045-.368-.164-.403-.137-.04-.301-.05-.288-.232.014-.167.064-.409-.128-.414-.205-.005-.603.056-1.17.505-.561.448-.749.847-.808 1.064-.064.212.164.232.31.272zM28.866 20.58l-6.799-10.485c-.603-.933-1.215-1.18-2.577-1.972-.512-.298-.649-.55-1.393-1.458a.097.097 0 00-.165.025c-2.116 4.479-2.152 4.176-2.239 4.782a4.96 4.96 0 00.014 1.502 4.17 4.17 0 00.626 1.685l6.803 10.485c.348.535.923.817 1.513.742 1.841-.247 3.564-1.614 4.373-3.46.246-.6.196-1.306-.156-1.846z"/></svg>