<svg viewBox="0 0 30 30" xmlns="http://www.w3.org/2000/svg"><path d="M3.978 1.88c-1.76 1.817-1.76 4.74-1.76 10.582V13.5c0 5.842 0 8.766 1.76 10.582C5.738 25.9 8.57 25.9 14.23 25.9h1.006c5.658 0 8.49 0 10.25-1.817 1.76-1.816 1.76-4.74 1.76-10.582v-1.038c0-5.841 0-8.765-1.76-10.582C23.725.064 20.893.064 15.235.064h-1.006c-5.659 0-8.491 0-10.25 1.816zm2.464 6.044h2.854c.095 4.93 2.201 7.018 3.872 7.445V7.924h2.692v4.25c1.648-.184 3.374-2.122 3.96-4.25h2.693a8.404 8.404 0 01-1.29 3.074 7.98 7.98 0 01-2.374 2.283 8.23 8.23 0 012.703 2.226 8.575 8.575 0 011.587 3.166h-2.966a5.307 5.307 0 00-1.592-2.59 5.086 5.086 0 00-2.72-1.25v3.84h-.325c-5.703 0-8.96-4.036-9.094-10.749z"/></svg>